<svg id="Group_111" data-name="Group 111" xmlns="http://www.w3.org/2000/svg" xmlns:xlink="http://www.w3.org/1999/xlink" width="302.989" height="51.043" viewBox="0 0 302.989 51.043">
  <defs>
    <clipPath id="clip-path">
      <rect id="Rectangle_83" data-name="Rectangle 83" width="302.989" height="51.043" fill="none"/>
    </clipPath>
  </defs>
  <g id="Group_85" data-name="Group 85" clip-path="url(#clip-path)">
    <path id="Path_55" data-name="Path 55" d="M291.872,51.043h10.151a.965.965,0,0,0,.946-1.156l-1.55-7.663a1.023,1.023,0,0,1-.019-.191V9.01a1.023,1.023,0,0,1,.019-.191l1.55-7.663A.965.965,0,0,0,302.023,0H291.872a.964.964,0,0,0-.945,1.156l1.549,7.663a.945.945,0,0,1,.019.191V42.033a.944.944,0,0,1-.019.191l-1.549,7.663a.964.964,0,0,0,.945,1.156" fill="#201d1d"/>
    <path id="Path_56" data-name="Path 56" d="M293.756,24.083H263.274c-.812-1.781-1.625-3.561-3.249-3.561-3.25,0-3.25,7.122-6.5,7.122s-3.249-7.122-6.5-7.122-3.25,7.122-6.5,7.122-3.25-7.122-6.5-7.122-3.249,7.122-6.5,7.122-3.25-7.122-6.5-7.122-3.249,7.122-6.5,7.122-3.249-7.122-6.5-7.122-3.25,7.122-6.5,7.122-3.25-7.122-6.5-7.122-3.25,7.122-6.5,7.122-3.25-7.122-6.5-7.122-3.25,7.122-6.5,7.122-3.249-7.122-6.5-7.122-3.25,7.122-6.5,7.122-3.251-7.122-6.5-7.122-3.25,7.122-6.5,7.122-3.249-7.122-6.5-7.122-3.248,7.122-6.5,7.122-3.25-7.122-6.5-7.122-3.249,7.122-6.5,7.122-3.25-7.122-6.5-7.122-3.249,7.122-6.5,7.122-3.251-7.122-6.5-7.122-3.25,7.122-6.5,7.122-3.251-7.122-6.5-7.122-3.251,7.122-6.5,7.122-3.25-7.122-6.5-7.122-3.25,7.122-6.5,7.122-3.251-7.122-6.5-7.122-3.251,7.122-6.5,7.122-3.251-7.122-6.5-7.122-3.25,7.122-6.5,7.122-3.25-7.122-6.5-7.122-3.25,7.122-6.5,7.122-3.251-7.122-6.5-7.122-3.253,7.122-6.505,7.122-3.252-7.122-6.5-7.122-3.254,7.122-6.507,7.122S3.254,20.522,0,20.522" fill="none" stroke="#231f20" stroke-width="2"/>
  </g>
</svg>
