<?xml version="1.0" encoding="UTF-8"?><svg id="Layer_1" xmlns="http://www.w3.org/2000/svg" viewBox="0 0 1876.57 787.26"><defs><style>.cls-1{fill:#003a49;stroke-width:0px;}</style></defs><path class="cls-1" d="m739.39,260.73h108.07v10.83h-40.56v137.79h-27.18v-137.79h-40.33v-10.83Z"/><path class="cls-1" d="m914.66,325.55h58.82v-65.18h27.38v148.62h-27.38v-72.61h-58.82v72.61h-27.38v-148.62h27.38v65.18Z"/><path class="cls-1" d="m1137.18,260.36v10.83h-57.54v54.35h50.96v10.83h-50.96v61.78h57.54v10.83h-84.93v-148.62h84.93Z"/><path class="cls-1" d="m206.06,722.95l-46.71-164.14h-32.96c-1.28,5.76-12.48,48.64-43.19,164.14l-50.24-164.14H0c23.36,76.79,46.4,152.3,69.75,227.81h13.76l53.12-192.62,55.99,192.62h13.76l64.63-227.81h-18.88l-46.07,164.14Z"/><rect class="cls-1" x="311.07" y="558.8" width="28.8" height="223.98"/><polygon class="cls-1" points="527.7 730.31 419.23 558.8 387.88 558.8 387.88 782.78 405.47 782.78 405.47 601.04 522.9 782.78 545.3 782.78 545.3 558.8 527.7 558.8 527.7 730.31"/><polygon class="cls-1" points="593.34 782.78 709.81 782.78 709.81 768.38 622.14 768.38 622.14 672.39 699.57 672.39 699.57 657.99 622.14 657.99 622.14 573.2 709.81 573.2 709.81 558.8 593.34 558.8 593.34 782.78"/><path class="cls-1" d="m1052.34,672.71h-28.8s-28.78,0-28.78,0v16.82h28.78v73.4c-10.24,5.12-24.32,8-40,8-25.6,0-47.04-10.24-63.35-29.76-15.68-18.88-24.64-44.47-24.64-70.71,0-55.67,35.84-99.19,81.91-99.19,20.48,0,38.72,9.28,57.27,29.12l13.44-14.08c-19.84-20.16-46.4-31.35-73.59-31.35-29.12,0-59.19,12.48-79.67,33.27-22.08,22.08-33.6,51.19-33.6,84.15,0,68.79,46.07,114.87,114.55,114.87,25.28,0,47.99-5.12,76.47-16.96v-80.76h0v-16.82h0Z"/><path class="cls-1" d="m1230.14,613.84c0-33.6-20.48-55.04-52.15-55.04h-77.43v223.98h28.8v-110.39h16.32l73.91,110.39h35.83l-75.51-112.95c36.8-10.24,50.23-25.28,50.23-55.99Zm-100.79,44.15v-84.79h31.68c24.96,0,38.72,14.4,38.72,40.96s-16.96,43.84-43.19,43.84h-27.2Z"/><path class="cls-1" d="m1384.4,554.97c-62.71,0-112.63,51.52-112.63,116.47s50.56,115.19,112.63,115.19,112.63-51.83,112.63-115.82-50.23-115.83-112.63-115.83Zm.32,217.25c-44.16,0-80.95-46.07-80.95-100.79s38.08-102.07,80.95-102.07,80.31,47.67,80.31,102.71-36.8,100.15-80.31,100.15Z"/><path class="cls-1" d="m1668.6,707.91c0,39.68-19.84,61.43-55.35,61.43-31.04,0-47.68-20.8-47.68-60.47v-150.07h-28.8v157.74c0,41.6,29.44,70.07,72.95,70.07s76.47-29.75,76.47-72.95v-154.86h-17.6v149.1Z"/><path class="cls-1" d="m1792.42,558.8h-58.87v223.98h28.8v-67.51h29.44c53.75,0,84.79-28.47,84.79-78.39s-30.4-78.07-84.15-78.07Zm37.44,125.11c-10.56,10.55-24.64,16.96-38.07,16.96h-29.44v-127.67h30.08c33.28,0,55.35,25.92,55.35,64.95,0,18.88-5.76,33.92-17.92,45.76Z"/><path class="cls-1" d="m939.21,21.15h0c274.29,0,515.29,178.56,562.64,388.2h115.79C1520.6,182.56,1253.19,0,938.29,0h0C623.38,0,355.98,182.56,258.92,409.35h117.64C423.91,199.71,664.92,21.15,939.21,21.15Z"/></svg>